<?xml version="1.0" encoding="UTF-8"?>
<svg width="26px" height="27px" viewBox="0 0 26 27" version="1.1" xmlns="http://www.w3.org/2000/svg" xmlns:xlink="http://www.w3.org/1999/xlink">
    <!-- Generator: Sketch 61.2 (89653) - https://sketch.com -->
    <title>253@svg</title>
    <desc>Created with Sketch.</desc>
    <g id="Registration_Symbols" stroke="none" stroke-width="1" fill="none" fill-rule="evenodd">
        <path d="M9.50980006,26.043457 C9.99417506,26.043457 10.3574563,25.831543 10.6147805,25.4379883 L25.2671243,2.53613281 C25.4790383,2.203125 25.5547219,1.94580078 25.5547219,1.70361328 C25.5547219,1.06787109 25.1308938,0.644042969 24.5102883,0.644042969 C24.0561868,0.644042969 23.7988626,0.810546875 23.5415383,1.21923828 L9.44925318,23.409668 L2.31985865,14.4790039 C2.032261,14.1005859 1.74466334,13.934082 1.32083522,13.934082 C0.685093028,13.934082 0.230991466,14.3730469 0.230991466,15.0087891 C0.230991466,15.2661133 0.336948497,15.5537109 0.563999278,15.8413086 L8.34427272,25.4077148 C8.67728053,25.8466797 9.02542506,26.043457 9.50980006,26.043457 Z" id="253" fill="#93D77E" fill-rule="nonzero"></path>
    </g>
</svg>