<svg xmlns="http://www.w3.org/2000/svg" width="93" height="93" viewBox="0 0 93 93">
    <g fill="none" fill-rule="evenodd">
        <path fill="#FFF" fill-rule="nonzero" d="M89.302 35.604l-10.879-4.983c-.961-.427-9.685 48.6-9.685 48.6s-.047 3.311-.823 5.589c-.61 1.79-6.606 6.614-6.606 6.614 2.502 1.112 5.466-.061 6.606-2.615l23.86-46.555c1.14-2.554.03-5.538-2.473-6.65z" opacity=".1"/>
        <path fill="#888" d="M67.027 89.502c-.372 0-.746-.127-1.052-.388a1.66 1.66 0 0 1-.198-2.324c.232-.278.381-.602.448-.963L78.51 18.9a2.095 2.095 0 0 0-1.663-2.44l-9.995-1.868a1.649 1.649 0 0 1-1.31-1.923c.164-.898 1.01-1.499 1.906-1.323l9.996 1.867c2.898.543 4.82 3.364 4.284 6.286L69.443 86.427a5.399 5.399 0 0 1-1.163 2.487 1.63 1.63 0 0 1-1.253.588z"/>
        <path fill="#FFF" d="M63.392 0c2.947 0 5.346 2.42 5.346 5.394V87.03c0 2.975-2.399 5.394-5.346 5.394H5.382c-2.948 0-5.346-2.419-5.346-5.394V5.394C.036 2.42 2.434 0 5.382 0h58.01zm0 3.3H5.382c-1.145 0-2.075.94-2.075 2.094V87.03c0 1.154.93 2.093 2.075 2.093h58.01c1.144 0 2.075-.94 2.075-2.093V5.394c0-1.154-.93-2.093-2.075-2.093zM34.387 79.22c.903 0 1.635.74 1.635 1.651 0 .913-.732 1.65-1.635 1.65H16.393a1.643 1.643 0 0 1-1.636-1.65c0-.912.733-1.65 1.636-1.65h17.994zm16.357-6.6c.904 0 1.636.737 1.636 1.65 0 .911-.732 1.65-1.636 1.65h-34.35a1.643 1.643 0 0 1-1.637-1.65c0-.913.733-1.65 1.636-1.65h34.351zM38.575 11.552c7.162 0 12.987 6.217 12.987 13.858l-.821 10.178-.003.228c-.116 3.951-1.929 8.602-4.7 12.046h2.47c4.152 0 8.779 2.925 8.779 7.122v6.08c0 .913-.732 1.652-1.635 1.652h-42.53a1.643 1.643 0 0 1-1.636-1.651v-5.374c0-4.614 5.058-7.83 9.598-7.83h1.652l-.092-.113c-2.78-3.509-4.573-8.228-4.615-12.19l-.812-10.012c-.006-7.777 5.82-13.994 12.981-13.994h8.377zM26.85 51.128l-.053.011c-.09.016-.184.024-.28.024h-5.432c-3.193 0-6.327 2.244-6.327 4.53v3.723h39.259v-4.431c0-1.93-2.729-3.822-5.509-3.822h-6.519l-.125-.005c-2.167 1.067-4.75 1.656-7.476 1.656-2.753 0-5.358-.6-7.538-1.686zm11.496-23.161c-3.159.81-6.424 1.647-9.382 1.647-3.682 0-6.161-1.336-7.645-2.254-.01.369-.017.828-.017 1.403v6.652c0 3.343 1.661 7.588 4.134 10.563 1.814 2.18 5.243 3.535 8.952 3.535 3.707 0 7.137-1.354 8.95-3.535 2.474-2.975 4.136-7.22 4.136-10.563v-6.652c0-.867-.176-1.446-.522-1.716-1.236-.97-5.151.037-8.606.92zm.23-13.113h-8.377c-4.717 0-8.66 3.672-9.535 8.523.684.102 1.333.516 1.931.895 1.279.814 3.212 2.041 6.369 2.041 2.547 0 5.613-.785 8.576-1.545 4.342-1.114 8.144-2.086 10.679-.8-.61-5.085-4.702-9.114-9.643-9.114z"/>
    </g>
</svg>
