<svg xmlns="http://www.w3.org/2000/svg" width="316" height="315" viewBox="0 0 316 315">
    <g fill="none" fill-rule="evenodd" opacity=".1">
        <path d="M.9 0h315v315H.9z"/>
        <path fill="#FFF" fill-rule="nonzero" d="M158.4 0c86.985 0 157.5 70.515 157.5 157.5S245.385 315 158.4 315 .9 244.485.9 157.5 71.415 0 158.4 0zm0 6.364C74.93 6.364 7.264 74.03 7.264 157.5S74.93 308.636 158.4 308.636 309.536 240.97 309.536 157.5 241.87 6.364 158.4 6.364zm51.313 115.99a4.331 4.331 0 0 1 6.1-.356 4.274 4.274 0 0 1 .36 6.06l-69.09 77.317a4.32 4.32 0 0 1-3.23 1.443c-.95 0-1.904-.31-2.698-.94l-43.18-34.363a4.283 4.283 0 0 1-.674-6.04 4.336 4.336 0 0 1 6.067-.67l39.98 31.816z"/>
    </g>
</svg>
