<svg xmlns="http://www.w3.org/2000/svg" width="316" height="315" viewBox="0 0 316 315">
    <g fill="none" fill-rule="evenodd" opacity=".1">
        <path d="M.9 0h315v315H.9z"/>
        <path fill="#FFF" fill-rule="nonzero" d="M158.4 0c86.985 0 157.5 70.515 157.5 157.5S245.385 315 158.4 315 .9 244.485.9 157.5 71.415 0 158.4 0zm0 6.364C74.93 6.364 7.264 74.03 7.264 157.5S74.93 308.636 158.4 308.636 309.536 240.97 309.536 157.5 241.87 6.364 158.4 6.364zM119.77 112.12l38.63 38.63 38.63-38.63a1.05 1.05 0 0 1 1.485 0l5.265 5.265c.41.41.41 1.074 0 1.484L165.15 157.5l38.63 38.63c.41.41.41 1.075 0 1.485l-5.265 5.265a1.05 1.05 0 0 1-1.484 0L158.4 164.25l-38.63 38.63a1.05 1.05 0 0 1-1.485 0l-5.265-5.265a1.05 1.05 0 0 1 0-1.484l38.63-38.631-38.63-38.63a1.05 1.05 0 0 1 0-1.485l5.265-5.265a1.05 1.05 0 0 1 1.484 0z"/>
    </g>
</svg>
