<svg xmlns="http://www.w3.org/2000/svg" width="46" height="46" viewBox="0 0 46 46">
    <g fill="none" fill-rule="evenodd">
        <path d="M0 0h46v46H0z"/>
        <g fill="#FFF">
            <path d="M18.244 31.193a.841.841 0 0 0-1.148.306l-1.904 3.291a.838.838 0 0 0 .727 1.258.84.84 0 0 0 .729-.42l1.904-3.29a.838.838 0 0 0-.308-1.145z" opacity=".4"/>
            <path d="M30.5 10.006a.841.841 0 0 0-1.148.307l-1.904 3.29a.838.838 0 0 0 .727 1.259.84.84 0 0 0 .729-.42l1.904-3.29a.838.838 0 0 0-.308-1.146z" opacity=".01"/>
            <path d="M14.762 27.718a.841.841 0 0 0-1.148-.307l-3.297 1.9a.838.838 0 0 0 .421 1.565.838.838 0 0 0 .42-.113l3.297-1.9a.838.838 0 0 0 .307-1.145z" opacity=".5"/>
            <path d="M35.99 15.485a.841.841 0 0 0-1.148-.307l-3.297 1.9a.838.838 0 0 0 .421 1.565.838.838 0 0 0 .42-.112l3.297-1.9a.838.838 0 0 0 .307-1.146z" opacity=".05"/>
            <path d="M12.648 22.132H8.84a.84.84 0 1 0 0 1.677h3.808a.84.84 0 1 0 0-1.677z" opacity=".6"/>
            <path d="M37.16 22.132h-3.808a.84.84 0 1 0 0 1.677h3.808a.84.84 0 1 0 0-1.677z" opacity=".1"/>
            <path d="M14.455 17.078l-3.297-1.9a.841.841 0 0 0-1.148.307.838.838 0 0 0 .307 1.146l3.297 1.9a.838.838 0 0 0 1.148-.307.838.838 0 0 0-.307-1.146z" opacity=".8"/>
            <path d="M35.683 29.31l-3.297-1.9a.841.841 0 0 0-1.148.308.838.838 0 0 0 .307 1.145l3.298 1.9a.84.84 0 0 0 1.148-.307.838.838 0 0 0-.308-1.146z" opacity=".15"/>
            <path d="M18.552 13.603l-1.904-3.29a.841.841 0 0 0-1.456.838l1.904 3.291a.84.84 0 0 0 1.456-.839z" opacity=".9"/>
            <path d="M30.808 34.79l-1.904-3.29a.841.841 0 0 0-1.148-.307.838.838 0 0 0-.308 1.145l1.904 3.29a.84.84 0 0 0 1.456-.838z" opacity=".2"/>
            <path d="M23 8a.84.84 0 0 0-.84.839v3.8a.84.84 0 0 0 1.68 0v-3.8A.84.84 0 0 0 23 8z"/>
            <path d="M23 32.464a.84.84 0 0 0-.84.839v3.8a.84.84 0 0 0 1.68 0v-3.8a.84.84 0 0 0-.84-.839z" opacity=".298"/>
        </g>
    </g>
</svg>
