<svg id="Layer_1" data-name="Layer 1" xmlns="http://www.w3.org/2000/svg" viewBox="0 0 794.87 77.29"><defs><style>.cls-1{fill:#fff;}.cls-2{fill:#4169e1;}</style></defs><title>logo</title><path class="cls-1" d="M36.33,75.49H0L38.92,1.81H83.59l39,73.68H86.28l-5.42-12H41.75ZM61.38,19.92,50.15,44.82H72.51Z"/><path class="cls-1" d="M157.77,75.49H122.61V1.81h35.16V27.1h10.59L187.79,1.81h38.92L196.93,38.33l33.2,37.16H190l-20.6-26.57H157.77Z"/><path class="cls-2" d="M263.39,75.49H230.67V1.81h47.46l14.12,36.08,2.29,6.1,2.3-6.1L311,1.81h47.41V75.49H325.65l.92-41.6.74-3.52L310.66,65.48H278.38v-.1L261.73,30.22l.78,3.67Z"/><path class="cls-2" d="M362.45,40.67V36.62c0-12.84,5.71-22,15.57-28S402,0,418.74,0s30.86,2.88,40.73,8.89S475,24.12,475,36.62v4.05c0,12.5-5.67,21.63-15.53,27.69s-23.93,8.93-40.72,8.93S387.84,74.51,378,68.55s-15.53-15-15.53-27.88Zm56.24,16.41a26.92,26.92,0,0,0,8.21-1.42,19,19,0,0,0,8.44-5.22,15.35,15.35,0,0,0,3.86-10.69v-2.2a15.69,15.69,0,0,0-3.86-10.79A20.16,20.16,0,0,0,427,21.53a28.4,28.4,0,0,0-8.26-1.32,28.08,28.08,0,0,0-8.2,1.32,19.88,19.88,0,0,0-8.4,5.23,15.5,15.5,0,0,0-3.9,10.79v2.19a15.32,15.32,0,0,0,3.9,10.75,19,19,0,0,0,8.4,5.22,28.21,28.21,0,0,0,8.2,1.37Z"/><path class="cls-2" d="M584.81,75.49H550.92L511.13,36.33l1,4.73.43,34.43H479V1.81h33.89l39.89,39.35-1-5-.53-34.37h33.59Z"/><path class="cls-2" d="M679.5,75.49H593V1.81h86.09v20H627.59v6.79h46.29v20H627.59v6.94H679.5Z"/><path class="cls-2" d="M794.87,1.81,753.56,50.54V75.49H718.41V50.54L677.05,1.81h40.48L736,30.08,754.39,1.81Z"/></svg>