<?xml version="1.0" encoding="UTF-8"?>
<svg width="28px" height="28px" viewBox="0 0 28 28" version="1.1" xmlns="http://www.w3.org/2000/svg" xmlns:xlink="http://www.w3.org/1999/xlink">
    <!-- Generator: Sketch 61.2 (89653) - https://sketch.com -->
    <title>23223</title>
    <desc>Created with Sketch.</desc>
    <g id="Authorization,-Registration,-1024" stroke="none" stroke-width="1" fill="none" fill-rule="evenodd">
        <path d="M26.5622903,9.7421875 C27.1828958,9.7421875 27.5007669,9.40917969 27.5007669,8.78857422 L27.5007669,4.91357422 C27.5007669,1.9921875 26.0022317,0.493652344 23.0505715,0.493652344 L19.1604348,0.493652344 C18.5549661,0.493652344 18.2068215,0.826660156 18.2068215,1.41699219 C18.2068215,2.02246094 18.5549661,2.35546875 19.1604348,2.35546875 L23.0051614,2.35546875 C24.6702005,2.35546875 25.6389505,3.26367188 25.6389505,5.00439453 L25.6389505,8.78857422 C25.6389505,9.40917969 25.9719583,9.7421875 26.5622903,9.7421875 Z M1.22342311,9.7421875 C1.82889186,9.7421875 2.16189967,9.40917969 2.16189967,8.78857422 L2.16189967,5.00439453 C2.16189967,3.26367188 3.08523951,2.35546875 4.78055201,2.35546875 L8.62527858,2.35546875 C9.24588404,2.35546875 9.57889186,2.02246094 9.57889186,1.41699219 C9.57889186,0.826660156 9.24588404,0.493652344 8.62527858,0.493652344 L4.75027858,0.493652344 C1.79861842,0.493652344 0.284946544,1.97705078 0.284946544,4.91357422 L0.284946544,8.78857422 C0.284946544,9.40917969 0.617954356,9.7421875 1.22342311,9.7421875 Z M20.1140481,22.6689453 C21.1130715,22.6689453 21.5520364,22.2905273 21.5520364,21.2915039 L21.5520364,6.89648438 C21.5520364,5.89746094 21.1130715,5.51904297 20.1140481,5.51904297 L7.47488795,5.51904297 C6.49100123,5.51904297 6.03689967,5.89746094 6.03689967,6.89648438 L6.03689967,21.2915039 C6.03689967,22.2905273 6.49100123,22.6689453 7.47488795,22.6689453 L20.1140481,22.6689453 Z M19.5388528,21.1098633 L8.03494654,21.1098633 C7.73221217,21.1098633 7.5959817,20.9887695 7.5959817,20.640625 L7.5959817,7.53222656 C7.5959817,7.21435547 7.73221217,7.06298828 8.03494654,7.06298828 L19.5388528,7.06298828 C19.8415872,7.06298828 19.9929544,7.21435547 19.9929544,7.53222656 L19.9929544,20.640625 C19.9929544,20.9887695 19.8415872,21.1098633 19.5388528,21.1098633 Z M17.4348489,10.9682617 C17.8435403,10.9682617 18.1008645,10.6806641 18.1008645,10.3022461 C18.1008645,9.90869141 17.8435403,9.62109375 17.4348489,9.62109375 L10.1540872,9.62109375 C9.74539576,9.62109375 9.48807154,9.90869141 9.48807154,10.3022461 C9.48807154,10.6806641 9.74539576,10.9682617 10.1540872,10.9682617 L17.4348489,10.9682617 Z M14.0442239,14.1469727 C14.4377786,14.1469727 14.7102395,13.8745117 14.7102395,13.4960938 C14.7102395,13.1025391 14.4377786,12.8149414 14.0442239,12.8149414 L10.1540872,12.8149414 C9.74539576,12.8149414 9.48807154,13.1025391 9.48807154,13.4960938 C9.48807154,13.8745117 9.74539576,14.1469727 10.1540872,14.1469727 L14.0442239,14.1469727 Z M8.62527858,27.7094727 C9.24588404,27.7094727 9.57889186,27.3764648 9.57889186,26.7709961 C9.57889186,26.1655273 9.24588404,25.8325195 8.62527858,25.8325195 L4.78055201,25.8325195 C3.08523951,25.8325195 2.16189967,24.9394531 2.16189967,23.1835938 L2.16189967,19.3994141 C2.16189967,18.7939453 1.82889186,18.4458008 1.22342311,18.4458008 C0.602817638,18.4458008 0.284946544,18.7939453 0.284946544,19.3994141 L0.284946544,23.2895508 C0.284946544,26.2109375 1.79861842,27.7094727 4.75027858,27.7094727 L8.62527858,27.7094727 Z M23.0505715,27.7094727 C26.0022317,27.7094727 27.5007669,26.1958008 27.5007669,23.2895508 L27.5007669,19.3994141 C27.5007669,18.7939453 27.167759,18.4458008 26.5622903,18.4458008 C25.9568215,18.4458008 25.6389505,18.7939453 25.6389505,19.3994141 L25.6389505,23.1835938 C25.6389505,24.9394531 24.6702005,25.8325195 23.0051614,25.8325195 L19.1604348,25.8325195 C18.5549661,25.8325195 18.2068215,26.1655273 18.2068215,26.7709961 C18.2068215,27.3764648 18.5549661,27.7094727 19.1604348,27.7094727 L23.0505715,27.7094727 Z" id="23223" fill="#FFFFFF" fill-rule="nonzero"></path>
    </g>
</svg>