<?xml version="1.0" encoding="UTF-8"?>
<svg width="95px" height="32px" viewBox="0 0 95 32" version="1.1" xmlns="http://www.w3.org/2000/svg" xmlns:xlink="http://www.w3.org/1999/xlink">
    <!-- Generator: Sketch 63.1 (92452) - https://sketch.com -->
    <title>AK_Logosvg</title>
    <desc>Created with Sketch.</desc>
    <g id="Page-2" stroke="none" stroke-width="1" fill="none" fill-rule="evenodd">
        <path d="M37.7820268,32 L35.0573614,26.3954802 L15.8030593,26.3954802 L13.2600382,32 L-1.20792265e-13,32 L17.4378585,-1.19015908e-12 L33.6042065,-1.19015908e-12 L50.678,31.331 L50.6787763,-1.19015908e-12 L63.3938815,-1.19015908e-12 L63.3938815,11.2090395 L69.5697897,11.2090395 L79.1969407,-1.19015908e-12 L93.3652008,-1.19015908e-12 L80.2868069,15.7288136 L95,32 L80.4684512,32 L69.9330784,20.0677966 L63.3938815,20.0677966 L63.3938815,32 L37.7820268,32 Z M25.6118547,6.8700565 L25.248566,6.8700565 L19.4359465,18.8022599 L31.4244742,18.8022599 L25.6118547,6.8700565 Z" id="AK_Logo" fill="#FFFFFF" fill-rule="nonzero"></path>
    </g>
</svg>