<?xml version="1.0" encoding="UTF-8"?>
<svg width="795px" height="78px" viewBox="0 0 795 78" version="1.1" xmlns="http://www.w3.org/2000/svg" xmlns:xlink="http://www.w3.org/1999/xlink">
    <!-- Generator: Sketch 62 (91390) - https://sketch.com -->
    <title>logo_1-1</title>
    <desc>Created with Sketch.</desc>
    <g id="Logo" stroke="none" stroke-width="1" fill="none" fill-rule="evenodd">
        <g id="Artboard" transform="translate(-592.000000, -588.000000)" fill-rule="nonzero">
            <g id="logo_1-1" transform="translate(592.000000, 588.000000)">
                <path d="M36.33,75.49 L0,75.49 L38.92,1.81 L83.59,1.81 L122.59,75.49 L86.28,75.49 L80.86,63.49 L41.75,63.49 L36.33,75.49 Z M61.38,19.92 L50.15,44.82 L72.51,44.82 L61.38,19.92 Z" id="Shape" fill="#FFFFFF"></path>
                <polygon id="Path" fill="#FFFFFF" points="157.77 75.49 122.61 75.49 122.61 1.81 157.77 1.81 157.77 27.1 168.36 27.1 187.79 1.81 226.71 1.81 196.93 38.33 230.13 75.49 190 75.49 169.4 48.92 157.77 48.92"></polygon>
                <polygon id="Path" fill="#4169E1" points="263.39 75.49 230.67 75.49 230.67 1.81 278.13 1.81 292.25 37.89 294.54 43.99 296.84 37.89 311 1.81 358.41 1.81 358.41 75.49 325.65 75.49 326.57 33.89 327.31 30.37 310.66 65.48 278.38 65.48 278.38 65.38 261.73 30.22 262.51 33.89"></polygon>
                <path d="M362.45,40.67 L362.45,36.62 C362.45,23.78 368.16,14.62 378.02,8.62 C387.88,2.62 402,0 418.74,0 C435.48,0 449.6,2.88 459.47,8.89 C469.34,14.9 475,24.12 475,36.62 L475,40.67 C475,53.17 469.33,62.3 459.47,68.36 C449.61,74.42 435.54,77.29 418.75,77.29 C401.96,77.29 387.84,74.51 378,68.55 C368.16,62.59 362.47,53.55 362.47,40.67 L362.45,40.67 Z M418.69,57.08 C421.483776,57.0356086 424.253611,56.5565385 426.9,55.66 C430.126086,54.6984077 433.038773,52.8969591 435.34,50.44 C437.947058,47.5018102 439.328514,43.6759643 439.2,39.75 L439.2,37.55 C439.319803,33.5952969 437.941091,29.7413343 435.34,26.76 C433.03489,24.3542803 430.169466,22.5573778 427,21.53 C424.326912,20.6847121 421.543394,20.2398883 418.74,20.21 C415.956346,20.2410969 413.19279,20.685962 410.54,21.53 C407.343954,22.5374943 404.454449,24.3365552 402.14,26.76 C399.507717,29.7254225 398.112007,33.5868873 398.24,37.55 L398.24,39.74 C398.103756,43.6923949 399.501213,47.5443607 402.14,50.49 C404.43012,52.9409928 407.328302,54.7420061 410.54,55.71 C413.190672,56.5691358 415.954007,57.0308148 418.74,57.08 L418.69,57.08 Z" id="Shape" fill="#4169E1"></path>
                <polygon id="Path" fill="#4169E1" points="584.81 75.49 550.92 75.49 511.13 36.33 512.13 41.06 512.56 75.49 479 75.49 479 1.81 512.89 1.81 552.78 41.16 551.78 36.16 551.25 1.79 584.84 1.79"></polygon>
                <polygon id="Path" fill="#4169E1" points="679.5 75.49 593 75.49 593 1.81 679.09 1.81 679.09 21.81 627.59 21.81 627.59 28.6 673.88 28.6 673.88 48.6 627.59 48.6 627.59 55.54 679.5 55.54"></polygon>
                <polygon id="Path" fill="#4169E1" points="794.87 1.81 753.56 50.54 753.56 75.49 718.41 75.49 718.41 50.54 677.05 1.81 717.53 1.81 736 30.08 754.39 1.81"></polygon>
            </g>
        </g>
    </g>
</svg>